<?xml version="1.0" standalone="no"?>
<!DOCTYPE svg PUBLIC "-//W3C//DTD SVG 20010904//EN"
 "http://www.w3.org/TR/2001/REC-SVG-20010904/DTD/svg10.dtd">
<svg version="1.0" xmlns="http://www.w3.org/2000/svg"
 width="1141.000000pt" height="537.000000pt" viewBox="0 0 1141.000000 537.000000"
 preserveAspectRatio="xMidYMid meet">

<g transform="translate(0.000000,537.000000) scale(0.100000,-0.100000)"
fill="#000000" stroke="none">
<path d="M2440 4111 c-55 -18 -108 -51 -143 -90 -63 -70 -72 -95 -73 -209 l-1
-104 -318 -140 c-294 -130 -319 -139 -328 -122 -20 37 -83 90 -127 109 -68 30
-170 27 -236 -7 -172 -90 -206 -308 -70 -444 111 -110 277 -113 384 -6 26 26
52 55 57 65 9 16 60 -2 597 -210 l587 -227 -2 -31 c-2 -27 3 -33 52 -57 57
-29 126 -37 160 -18 10 5 24 24 31 42 18 44 57 86 104 110 l40 20 -25 19 c-13
10 -48 27 -78 36 l-55 18 -164 342 -165 342 51 48 c70 66 96 127 96 223 0 58
-6 86 -24 125 -31 63 -89 121 -148 148 -50 22 -161 32 -202 18z m-175 -458
c26 -39 74 -81 120 -105 48 -25 154 -35 208 -20 l39 11 105 -217 c219 -452
224 -462 205 -468 -55 -18 -81 -32 -114 -62 -26 -23 -44 -32 -55 -28 -10 4
-275 106 -590 228 l-571 220 1 67 c1 36 -1 77 -5 91 -7 25 -1 28 310 167 174
77 320 141 323 142 4 1 15 -11 24 -26z"/>
<path d="M6030 3170 l0 -490 75 0 75 0 1 323 0 322 345 -349 344 -350 0 492 0
492 -70 0 -70 0 0 -322 -1 -323 -342 348 c-188 191 -345 347 -349 347 -5 0 -8
-220 -8 -490z"/>
<path d="M7235 3174 c-127 -261 -231 -479 -233 -485 -2 -5 30 -9 75 -9 l78 0
50 110 50 110 206 0 207 0 48 -110 49 -110 79 0 c58 0 77 3 73 13 -26 66 -442
957 -446 957 -4 0 -110 -214 -236 -476z m305 13 c34 -76 60 -140 57 -143 -2
-3 -65 -3 -140 -2 l-135 3 71 153 c42 91 74 147 78 140 4 -7 35 -75 69 -151z"/>
<path d="M4558 3604 c-5 -4 -8 -214 -8 -466 l0 -458 75 0 75 0 0 190 c0 151 3
190 13 190 8 0 74 -84 147 -186 74 -102 139 -188 145 -190 7 -3 47 -4 89 -2
l77 3 -145 194 -145 193 62 32 c104 53 155 142 144 257 -6 66 -26 111 -75 162
-59 61 -122 79 -297 84 -82 3 -153 2 -157 -3z m320 -152 c49 -24 74 -74 69
-131 -9 -82 -67 -127 -181 -138 l-66 -6 0 153 0 153 71 -6 c39 -3 87 -14 107
-25z"/>
<path d="M5327 3603 c-4 -3 -7 -213 -7 -465 l0 -458 265 0 265 0 0 65 0 65
-190 0 -190 0 0 150 0 150 185 0 185 0 0 65 0 65 -185 0 -185 0 0 115 0 115
190 0 190 0 0 70 0 70 -258 0 c-142 0 -262 -3 -265 -7z"/>
<path d="M7882 3602 c29 -78 413 -962 418 -962 5 0 389 884 418 962 2 5 -29 8
-74 6 l-78 -3 -130 -317 c-72 -175 -133 -318 -136 -318 -4 0 -65 143 -137 318
l-131 317 -77 3 c-44 2 -75 -1 -73 -6z"/>
<path d="M8840 3145 l0 -465 260 0 260 0 0 65 0 65 -190 0 -190 0 0 150 0 150
185 0 185 0 0 65 0 65 -185 0 -185 0 0 120 0 120 190 0 190 0 0 65 0 65 -260
0 -260 0 0 -465z"/>
<path d="M9560 3145 l0 -465 70 0 70 0 0 215 0 215 205 0 205 0 0 -215 0 -215
70 0 70 0 0 465 0 465 -70 0 -70 0 0 -185 0 -185 -205 0 -205 0 0 185 0 185
-70 0 -70 0 0 -465z"/>
<path d="M3840 3018 c0 -7 11 -60 24 -118 14 -61 20 -106 15 -108 -25 -9 -73
-59 -85 -89 -19 -44 -18 -69 6 -118 53 -109 208 -112 262 -4 48 92 -9 202
-112 216 l-39 5 -21 97 c-12 53 -24 104 -26 114 -6 19 -24 23 -24 5z"/>
<path d="M5250 2224 l0 -75 -26 20 c-75 59 -176 -9 -161 -107 12 -74 101 -108
161 -61 l26 20 0 -20 c0 -12 5 -21 10 -21 6 0 10 60 10 160 0 100 -4 160 -10
160 -6 0 -10 -32 -10 -76z m-34 -78 c21 -18 28 -32 28 -61 0 -43 -39 -85 -79
-85 -40 0 -79 42 -79 85 0 43 39 85 79 85 13 0 36 -11 51 -24z"/>
<path d="M7450 2140 c0 -100 4 -160 10 -160 6 0 10 60 10 160 0 100 -4 160
-10 160 -6 0 -10 -60 -10 -160z"/>
<path d="M7850 2224 l0 -75 -26 20 c-75 59 -176 -9 -161 -107 12 -74 101 -108
161 -61 l26 20 0 -20 c0 -12 5 -21 10 -21 6 0 10 60 10 160 0 100 -4 160 -10
160 -6 0 -10 -32 -10 -76z m-34 -78 c21 -18 28 -32 28 -61 0 -43 -39 -85 -79
-85 -40 0 -79 42 -79 85 0 43 39 85 79 85 13 0 36 -11 51 -24z"/>
<path d="M9050 2140 c0 -136 2 -160 15 -160 13 0 15 24 15 160 0 136 -2 160
-15 160 -13 0 -15 -24 -15 -160z"/>
<path d="M4560 2135 c0 -97 4 -155 10 -155 6 0 10 27 10 60 0 60 0 60 29 60
25 0 37 -10 72 -60 23 -33 48 -60 56 -60 16 0 13 6 -34 73 -24 32 -30 47 -20
47 25 0 64 38 71 70 3 18 0 45 -8 65 -16 38 -58 55 -138 55 l-48 0 0 -155z
m154 103 c21 -29 20 -67 -1 -90 -12 -13 -31 -18 -75 -18 l-58 0 0 65 0 65 59
0 c51 0 62 -3 75 -22z"/>
<path d="M5740 2136 c0 -97 4 -156 10 -156 6 0 10 49 10 126 0 69 4 123 8 120
5 -3 42 -59 83 -126 40 -66 79 -120 86 -120 10 0 13 36 13 155 0 97 -4 155
-10 155 -6 0 -10 -48 -10 -125 0 -69 -3 -125 -7 -125 -5 0 -42 55 -83 122 -41
67 -81 123 -87 126 -10 3 -13 -32 -13 -152z"/>
<path d="M8303 2277 c3 -7 24 -77 47 -155 27 -88 48 -142 56 -142 8 0 25 41
44 103 17 56 38 124 47 150 15 47 12 70 -6 51 -5 -5 -24 -58 -41 -119 -18 -60
-36 -116 -40 -123 -4 -8 -20 33 -40 100 -18 62 -37 121 -42 131 -10 20 -33 24
-25 4z"/>
<path d="M9236 2274 c-21 -20 -39 -54 -29 -54 3 0 18 10 31 23 l24 22 15 -22
c9 -13 22 -23 30 -23 10 0 6 10 -13 35 -30 39 -36 42 -58 19z"/>
<path d="M6540 2265 c0 -8 7 -15 15 -15 8 0 15 7 15 15 0 8 -7 15 -15 15 -8 0
-15 -7 -15 -15z"/>
<path d="M8560 2265 c0 -8 9 -15 20 -15 11 0 20 7 20 15 0 8 -9 15 -20 15 -11
0 -20 -7 -20 -15z"/>
<path d="M8940 2265 c0 -8 9 -15 20 -15 11 0 20 7 20 15 0 8 -9 15 -20 15 -11
0 -20 -7 -20 -15z"/>
<path d="M9920 2265 c0 -8 7 -15 15 -15 8 0 15 7 15 15 0 8 -7 15 -15 15 -8 0
-15 -7 -15 -15z"/>
<path d="M4838 2162 c-27 -25 -31 -36 -31 -77 0 -41 4 -52 31 -77 43 -37 99
-39 139 -3 31 27 13 35 -21 10 -30 -23 -74 -18 -101 10 -14 13 -25 29 -25 35
0 6 34 10 90 10 98 0 99 1 79 59 -22 63 -107 80 -161 33z m116 -13 c14 -11 26
-29 26 -40 0 -17 -8 -19 -69 -19 -75 0 -88 8 -71 40 22 41 75 50 114 19z"/>
<path d="M5393 2180 c-58 -23 -69 -134 -18 -177 40 -35 134 -26 149 13 7 18
-14 17 -38 -1 -39 -29 -90 -15 -115 33 l-12 22 91 0 90 0 0 31 c0 43 -47 89
-92 88 -18 0 -43 -4 -55 -9z m110 -42 c28 -34 16 -43 -61 -46 -66 -3 -72 -1
-72 17 0 11 12 29 27 41 33 26 79 21 106 -12z"/>
<path d="M6071 2174 c-13 -9 -29 -31 -37 -50 -40 -95 70 -186 150 -123 l26 20
0 -20 c0 -12 6 -21 15 -21 12 0 15 18 15 105 0 87 -3 105 -15 105 -9 0 -15 -9
-15 -21 l0 -20 -26 20 c-32 25 -81 27 -113 5z m92 -16 c53 -28 64 -92 22 -133
-50 -51 -135 -15 -135 58 0 64 60 104 113 75z"/>
<path d="M6349 2175 c-56 -30 -64 -129 -14 -172 18 -16 39 -23 66 -23 45 0 83
16 74 31 -4 6 -13 5 -25 -1 -34 -18 -70 -11 -102 20 -25 26 -29 36 -24 63 11
58 70 92 117 67 11 -6 24 -8 31 -4 16 10 -31 33 -67 33 -16 0 -42 -6 -56 -14z"/>
<path d="M6540 2085 c0 -87 3 -105 15 -105 12 0 15 18 15 105 0 87 -3 105 -15
105 -12 0 -15 -18 -15 -105z"/>
<path d="M6681 2174 c-13 -9 -29 -31 -37 -50 -44 -105 82 -192 168 -115 28 25
33 36 33 76 0 40 -5 51 -33 76 -38 34 -93 39 -131 13z m122 -35 c42 -52 3
-139 -63 -139 -61 0 -105 85 -67 132 33 42 97 46 130 7z"/>
<path d="M6910 2085 c0 -87 3 -105 15 -105 12 0 15 15 15 74 0 69 2 76 26 95
15 12 32 21 39 21 7 0 24 -9 39 -21 24 -19 26 -26 26 -95 0 -43 4 -74 10 -74
6 0 10 34 10 83 0 74 -3 86 -23 105 -27 26 -73 29 -105 6 -20 -14 -22 -14 -22
0 0 9 -7 16 -15 16 -12 0 -15 -18 -15 -105z"/>
<path d="M7201 2174 c-13 -9 -29 -31 -37 -50 -40 -95 70 -186 150 -123 l26 20
0 -20 c0 -12 6 -21 15 -21 12 0 15 18 15 105 0 87 -3 105 -15 105 -9 0 -15 -9
-15 -21 l0 -20 -26 20 c-32 25 -81 27 -113 5z m92 -16 c53 -28 64 -92 22 -133
-50 -51 -135 -15 -135 58 0 64 60 104 113 75z"/>
<path d="M7993 2180 c-58 -23 -69 -134 -18 -177 40 -35 134 -26 149 13 7 18
-14 17 -38 -1 -39 -29 -90 -15 -115 33 l-12 22 91 0 90 0 0 31 c0 43 -47 89
-92 88 -18 0 -43 -4 -55 -9z m110 -42 c28 -34 16 -43 -61 -46 -66 -3 -72 -1
-72 17 0 11 12 29 27 41 33 26 79 21 106 -12z"/>
<path d="M8570 2085 c0 -63 4 -105 10 -105 6 0 10 42 10 105 0 63 -4 105 -10
105 -6 0 -10 -42 -10 -105z"/>
<path d="M8709 2175 c-56 -30 -64 -129 -14 -172 35 -30 93 -31 130 -1 l28 22
-7 -40 c-14 -75 -78 -107 -134 -68 -32 22 -43 7 -13 -17 34 -28 102 -26 138 5
28 24 28 26 31 155 3 89 0 131 -7 131 -6 0 -11 -9 -11 -21 l0 -20 -26 20 c-31
24 -77 26 -115 6z m107 -29 c21 -18 28 -32 28 -61 0 -43 -39 -85 -79 -85 -40
0 -79 42 -79 85 0 43 39 85 79 85 13 0 36 -11 51 -24z"/>
<path d="M8950 2085 c0 -63 4 -105 10 -105 6 0 10 42 10 105 0 63 -4 105 -10
105 -6 0 -10 -42 -10 -105z"/>
<path d="M9191 2174 c-13 -9 -29 -31 -37 -50 -40 -95 70 -186 150 -123 l26 20
0 -20 c0 -12 6 -21 15 -21 12 0 15 18 15 105 0 87 -3 105 -15 105 -9 0 -15 -9
-15 -21 l0 -20 -26 20 c-32 25 -81 27 -113 5z m92 -16 c53 -28 64 -92 22 -133
-50 -51 -135 -15 -135 58 0 64 60 104 113 75z"/>
<path d="M9440 2085 c0 -63 4 -105 10 -105 6 0 10 29 10 68 0 43 5 75 15 89
20 29 62 38 91 18 22 -14 24 -22 24 -95 0 -67 3 -80 16 -80 14 0 16 12 13 86
-4 76 -7 88 -28 105 -28 23 -70 25 -97 4 -25 -19 -34 -19 -34 0 0 8 -4 15 -10
15 -6 0 -10 -42 -10 -105z"/>
<path d="M9719 2162 c-27 -24 -32 -36 -33 -76 -1 -42 3 -51 32 -77 23 -20 43
-29 68 -29 40 0 77 16 69 31 -4 6 -13 5 -25 -1 -55 -29 -120 11 -120 75 0 59
63 101 115 77 30 -14 44 3 16 17 -37 20 -89 13 -122 -17z"/>
<path d="M9920 2085 c0 -87 3 -105 15 -105 12 0 15 18 15 105 0 87 -3 105 -15
105 -12 0 -15 -18 -15 -105z"/>
<path d="M10061 2174 c-13 -9 -29 -31 -37 -50 -40 -95 70 -186 150 -123 l26
20 0 -20 c0 -12 6 -21 15 -21 12 0 15 18 15 105 0 87 -3 105 -15 105 -9 0 -15
-9 -15 -21 l0 -20 -26 20 c-32 25 -81 27 -113 5z m92 -16 c53 -28 64 -92 22
-133 -50 -51 -135 -15 -135 58 0 64 60 104 113 75z"/>
<path d="M3111 1842 c-48 -26 -74 -76 -67 -130 l6 -43 -80 -52 c-44 -28 -80
-57 -80 -65 0 -14 25 -2 124 64 49 33 50 33 75 15 69 -49 156 -29 191 45 33
68 11 137 -55 168 -43 21 -73 20 -114 -2z"/>
<path d="M5360 1690 c0 -38 -3 -70 -7 -70 -3 0 -15 8 -26 17 -12 11 -34 17
-60 17 -33 -1 -47 -8 -69 -33 -73 -82 12 -212 113 -171 16 7 29 16 29 21 0 5
5 9 10 9 6 0 10 -7 10 -15 0 -8 5 -15 10 -15 6 0 10 58 10 155 0 97 -4 155
-10 155 -6 0 -10 -30 -10 -70z m-41 -70 c31 -16 46 -65 31 -100 -15 -35 -37
-50 -75 -50 -38 0 -60 15 -75 50 -14 34 0 83 29 100 21 12 68 13 90 0z"/>
<path d="M6490 1605 c0 -97 4 -155 10 -155 6 0 10 58 10 155 0 97 -4 155 -10
155 -6 0 -10 -58 -10 -155z"/>
<path d="M9440 1605 c0 -97 4 -155 10 -155 6 0 10 58 10 155 0 97 -4 155 -10
155 -6 0 -10 -58 -10 -155z"/>
<path d="M4560 1600 l0 -150 85 0 c50 0 85 4 85 10 0 6 -32 10 -75 10 l-75 0
0 55 0 55 65 0 c51 0 65 3 65 15 0 12 -14 15 -65 15 l-66 0 3 58 3 57 73 3
c101 4 91 22 -13 22 l-85 0 0 -150z"/>
<path d="M5074 1739 c-10 -17 13 -36 27 -22 12 12 4 33 -11 33 -5 0 -12 -5
-16 -11z"/>
<path d="M6114 1739 c-10 -17 13 -36 27 -22 12 12 4 33 -11 33 -5 0 -12 -5
-16 -11z"/>
<path d="M6697 1720 c-22 -36 -4 -41 24 -7 22 26 24 37 6 37 -7 0 -21 -13 -30
-30z"/>
<path d="M7134 1739 c-10 -17 13 -36 27 -22 12 12 4 33 -11 33 -5 0 -12 -5
-16 -11z"/>
<path d="M7870 1600 c0 -127 2 -150 15 -150 12 0 15 14 15 70 l0 70 85 0 85 0
0 -70 c0 -56 3 -70 15 -70 13 0 15 23 15 150 0 127 -2 150 -15 150 -12 0 -15
-14 -15 -70 l0 -70 -85 0 -85 0 0 70 c0 56 -3 70 -15 70 -13 0 -15 -23 -15
-150z"/>
<path d="M8920 1730 c0 -11 7 -20 15 -20 8 0 15 9 15 20 0 11 -7 20 -15 20 -8
0 -15 -9 -15 -20z"/>
<path d="M9040 1690 c0 -33 -3 -40 -20 -40 -11 0 -20 -4 -20 -10 0 -5 9 -10
20 -10 19 0 20 -7 20 -90 0 -73 3 -90 15 -90 12 0 15 17 15 90 0 83 1 90 20
90 11 0 20 5 20 10 0 6 -9 10 -20 10 -17 0 -20 7 -20 40 0 29 -4 40 -15 40
-11 0 -15 -11 -15 -40z"/>
<path d="M4874 1650 c-12 -5 -25 -13 -29 -19 -9 -16 -25 -13 -25 4 0 8 -4 15
-10 15 -6 0 -10 -57 -10 -150 0 -93 4 -150 10 -150 6 0 10 28 10 65 l0 64 35
-20 c88 -52 183 36 145 135 -16 44 -84 74 -126 56z m76 -30 c10 -5 24 -25 30
-44 9 -28 8 -40 -4 -64 -34 -66 -135 -54 -151 17 -7 31 15 85 37 94 22 9 69 7
88 -3z"/>
<path d="M5500 1643 c-69 -35 -73 -143 -7 -183 18 -11 40 -20 50 -20 29 0 87
31 87 46 0 18 -14 18 -30 -1 -19 -22 -86 -19 -110 5 -41 41 -28 50 71 50 l92
0 -7 33 c-14 69 -83 102 -146 70z m100 -33 c39 -39 27 -50 -55 -50 -41 0 -75
4 -75 9 0 4 9 20 21 35 26 33 79 36 109 6z"/>
<path d="M5780 1649 c-13 -6 -28 -15 -32 -22 -5 -8 -8 -6 -8 6 0 9 -7 17 -15
17 -12 0 -15 -18 -15 -100 0 -82 3 -100 15 -100 12 0 15 15 15 73 0 82 15 107
63 107 44 0 57 -23 57 -106 0 -59 3 -74 15 -74 12 0 15 14 15 68 0 79 17 112
58 112 15 0 32 -4 39 -8 20 -12 33 -60 33 -118 0 -30 5 -54 10 -54 14 0 13
133 -1 164 -7 13 -25 30 -41 37 -24 10 -35 9 -64 -4 -19 -9 -34 -22 -34 -29 0
-6 -10 -2 -22 9 -30 27 -57 34 -88 22z"/>
<path d="M6274 1646 c-69 -30 -86 -111 -35 -168 25 -28 36 -33 76 -33 40 0 51
5 76 33 52 58 34 138 -37 168 -40 17 -41 17 -80 0z m81 -22 c46 -18 54 -109
12 -139 -48 -34 -120 -10 -132 44 -7 31 15 85 37 94 19 8 64 8 83 1z"/>
<path d="M6644 1646 c-69 -30 -86 -111 -35 -168 25 -28 36 -33 76 -33 40 0 51
5 76 33 52 58 34 138 -37 168 -40 17 -41 17 -80 0z m81 -22 c46 -18 54 -109
12 -139 -48 -34 -120 -10 -132 44 -7 31 15 85 37 94 19 8 64 8 83 1z"/>
<path d="M6902 1645 c-72 -31 -78 -143 -9 -186 37 -23 88 -20 118 7 18 16 19
16 19 -9 0 -44 -21 -76 -57 -88 -28 -9 -39 -8 -68 10 -39 23 -55 13 -24 -15
15 -13 36 -19 70 -19 85 0 108 45 109 213 0 75 -3 92 -15 92 -8 0 -15 -6 -15
-14 0 -11 -8 -10 -37 5 -44 22 -48 23 -91 4z m103 -40 c53 -52 18 -135 -56
-135 -29 0 -42 6 -58 26 -65 82 41 183 114 109z"/>
<path d="M7294 1646 c-124 -54 -47 -245 79 -197 42 16 32 29 -18 23 -80 -9
-125 49 -90 117 17 35 49 46 100 37 21 -4 35 -3 35 3 0 24 -66 34 -106 17z"/>
<path d="M7523 1653 c-12 -2 -34 -18 -48 -34 -56 -68 -12 -174 73 -174 24 0
48 7 59 18 24 21 33 22 33 2 0 -8 5 -15 10 -15 6 0 10 40 10 100 0 60 -4 100
-10 100 -5 0 -10 -7 -10 -15 0 -19 -9 -19 -29 -1 -19 16 -58 24 -88 19z m91
-54 c30 -35 32 -49 11 -88 -16 -31 -33 -41 -71 -41 -59 0 -96 56 -74 110 25
60 92 69 134 19z"/>
<path d="M8234 1646 c-69 -30 -86 -111 -35 -168 25 -28 36 -33 76 -33 40 0 51
5 76 33 52 58 34 138 -37 168 -40 17 -41 17 -80 0z m81 -22 c46 -18 54 -109
12 -139 -48 -34 -120 -10 -132 44 -7 31 15 85 37 94 19 8 64 8 83 1z"/>
<path d="M8477 1648 c-30 -11 -46 -51 -30 -77 6 -9 25 -20 44 -26 19 -5 40
-14 47 -18 21 -14 14 -47 -13 -59 -22 -10 -30 -8 -56 11 -39 29 -53 17 -16
-15 31 -27 54 -30 92 -12 54 25 41 87 -23 106 -50 15 -69 36 -52 57 7 8 23 15
35 15 12 0 28 -7 35 -15 16 -19 30 -19 30 -1 0 30 -51 49 -93 34z"/>
<path d="M8707 1641 c-29 -15 -37 -16 -37 -5 0 8 -7 14 -15 14 -13 0 -15 -23
-15 -150 0 -127 2 -150 15 -150 12 0 15 14 15 67 0 64 1 66 19 49 30 -27 81
-30 118 -7 71 45 59 163 -19 190 -40 14 -37 14 -81 -8z m98 -36 c50 -49 17
-135 -53 -135 -48 0 -82 32 -82 79 0 74 83 109 135 56z"/>
<path d="M9223 1653 c-12 -2 -34 -18 -48 -34 -56 -68 -12 -174 73 -174 24 0
48 7 59 18 24 21 33 22 33 2 0 -8 5 -15 10 -15 6 0 10 40 10 100 0 60 -4 100
-10 100 -5 0 -10 -7 -10 -15 0 -19 -9 -19 -29 -1 -19 16 -58 24 -88 19z m91
-54 c30 -35 32 -49 11 -88 -16 -31 -33 -41 -71 -41 -59 0 -96 56 -74 110 25
60 92 69 134 19z"/>
<path d="M9603 1653 c-12 -2 -34 -18 -48 -34 -56 -68 -12 -174 73 -174 24 0
48 7 59 18 24 21 33 22 33 2 0 -8 5 -15 10 -15 6 0 10 40 10 100 0 60 -4 100
-10 100 -5 0 -10 -7 -10 -15 0 -19 -9 -19 -29 -1 -19 16 -58 24 -88 19z m91
-54 c30 -35 32 -49 11 -88 -16 -31 -33 -41 -71 -41 -59 0 -96 56 -74 110 25
60 92 69 134 19z"/>
<path d="M9893 1650 c-12 -5 -26 -17 -32 -27 -10 -16 -10 -16 -11 5 0 13 -6
22 -15 22 -12 0 -15 -18 -15 -100 0 -82 3 -100 15 -100 12 0 15 13 15 61 0 84
20 119 68 119 14 0 22 5 20 12 -6 16 -19 18 -45 8z"/>
<path d="M5080 1550 c0 -60 4 -100 10 -100 6 0 10 40 10 100 0 60 -4 100 -10
100 -6 0 -10 -40 -10 -100z"/>
<path d="M6120 1550 c0 -60 4 -100 10 -100 6 0 10 40 10 100 0 60 -4 100 -10
100 -6 0 -10 -40 -10 -100z"/>
<path d="M7140 1550 c0 -60 4 -100 10 -100 6 0 10 40 10 100 0 60 -4 100 -10
100 -6 0 -10 -40 -10 -100z"/>
<path d="M8920 1550 c0 -82 3 -100 15 -100 12 0 15 18 15 100 0 82 -3 100 -15
100 -12 0 -15 -18 -15 -100z"/>
</g>
</svg>
